<svg xmlns="http://www.w3.org/2000/svg" viewBox="0 0 64 64" fill="none">
  <defs>
    <linearGradient id="dragGrad" x1="0%" y1="0%" x2="100%" y2="100%">
      <stop offset="0%" stop-color="#A78BFA"/>
      <stop offset="50%" stop-color="#8B5CF6"/>
      <stop offset="100%" stop-color="#6D28D9"/>
    </linearGradient>
    <radialGradient id="eyeGrad" cx="50%" cy="50%" r="50%">
      <stop offset="0%" stop-color="#FBBF24"/>
      <stop offset="100%" stop-color="#F59E0B"/>
    </radialGradient>
  </defs>
  <rect width="64" height="64" rx="14" fill="#0F0A1E"/>
  <path d="M32 12c-7 0-12 4-13 9-1 4 1 8 4 10-4 2-6 6-5 11 1 5 6 8 11 8 2 0 4-1 6-2 1 1 3 2 5 2 5 0 9-3 10-7 1-4-1-8-4-10 3-2 4-5 4-8 0-7-7-13-18-13z" fill="url(#dragGrad)"/>
  <path d="M22 22c2 0 4 1 5 3-2-1-4-1-5-1l-2-1z" fill="#6D28D9" opacity="0.6"/>
  <path d="M42 22c-2 0-4 1-5 3 2-1 4-1 5-1l2-1z" fill="#6D28D9" opacity="0.6"/>
  <circle cx="26" cy="28" r="3" fill="#fff"/>
  <circle cx="38" cy="28" r="3" fill="#fff"/>
  <circle cx="26" cy="28" r="1.8" fill="url(#eyeGrad)"/>
  <circle cx="38" cy="28" r="1.8" fill="url(#eyeGrad)"/>
  <circle cx="26.5" cy="27.5" r="0.6" fill="#fff"/>
  <circle cx="38.5" cy="27.5" r="0.6" fill="#fff"/>
  <path d="M30 38c0 1 1 2 2 2s2-1 2-2" stroke="#1E1033" stroke-width="1.5" stroke-linecap="round" fill="none"/>
  <path d="M16 14l4 6M48 14l-4 6" stroke="url(#dragGrad)" stroke-width="3" stroke-linecap="round"/>
</svg>
